<svg width="42" height="42" viewBox="0 0 42 42" fill="none" xmlns="http://www.w3.org/2000/svg">
<path d="M32.9354 6.24824C32.6111 5.7516 32.1373 5.73733 31.5974 5.72108C31.5362 5.71924 31.4742 5.71737 31.4115 5.71477C31.3637 5.71257 31.311 5.71342 31.2559 5.71431C31.0369 5.71782 30.7808 5.72194 30.6518 5.53796C30.5022 5.32467 30.5164 4.91248 30.5281 4.57219C30.5318 4.46467 30.5352 4.36426 30.5332 4.27964C30.5122 3.48916 30.4683 2.64947 30.1632 2.36876C29.9331 2.15815 29.2447 2.18733 28.6099 2.21424C28.4041 2.22296 28.2039 2.23145 28.0268 2.23145H14.5139C14.2418 2.23145 13.9566 2.20929 13.6764 2.18752C13.1303 2.14511 12.6032 2.10416 12.2289 2.23145C11.6856 2.41707 11.6489 3.39251 11.6142 4.31103L11.6124 4.36045C11.5833 5.11872 11.3954 5.70384 10.7726 5.6449C10.0482 5.57746 9.32739 5.55619 8.99988 6.21178C8.61309 6.98746 8.69286 7.79942 8.83574 9.25377C8.85615 9.46151 8.87785 9.68237 8.89966 9.91809H33.1443C33.1582 9.7458 33.1729 9.57571 33.1875 9.40837C33.301 8.09991 33.3999 6.95986 32.9354 6.24824Z" fill="#8047F8"/>
<path fill-rule="evenodd" clip-rule="evenodd" d="M10.7878 11.3605C11.1664 16.4853 11.5409 21.616 11.9155 26.7467L11.9157 26.7498C12.119 29.5357 12.3224 32.3215 12.5264 35.1064H13.3C13.3527 35.5424 13.413 36.0805 13.4766 36.648C13.6057 37.7998 13.7483 39.0722 13.8682 39.8542H13.9538C14.7418 39.5658 20.1891 37.2375 20.1915 27.9677C20.1905 27.9412 20.1914 27.9148 20.1941 27.8885H18.8483C18.7832 27.8879 18.72 27.8662 18.6686 27.8266C18.6172 27.7871 18.5803 27.732 18.5637 27.6697C18.4325 27.3457 18.3268 27.0123 18.2474 26.6723C17.4557 27.1194 16.827 27.8022 16.4509 28.6233C16.0938 27.7823 16.0471 26.8441 16.3188 25.9725C16.5906 25.101 17.1635 24.3515 17.9374 23.8551C17.9474 21.1502 18.9602 18.5427 20.784 16.5262L20.8125 16.5012C20.8655 16.4553 20.9334 16.4298 21.0038 16.4293C21.0445 16.4296 21.0847 16.4383 21.1218 16.4548C21.1594 16.4715 21.193 16.4958 21.2205 16.5262C23.0657 18.5454 24.0731 21.178 24.0418 23.8989C24.8302 24.3815 25.4148 25.1304 25.687 26.0067C25.9592 26.883 25.9006 27.8271 25.522 28.664C25.148 27.8415 24.5187 27.1582 23.7255 26.7129C23.6771 27.0424 23.5878 27.3648 23.4598 27.6728C23.4156 27.8041 23.327 27.8885 23.2384 27.8885H21.8032C21.8055 27.9043 21.8071 27.9201 21.808 27.9359L21.8086 27.9396V27.9472C21.8091 27.9609 21.8091 27.9745 21.8086 27.9882C21.8282 37.5242 27.6199 39.6886 28.1081 39.8542H28.2751C28.3177 39.1031 28.4565 38.0667 28.5918 37.0563C28.685 36.36 28.7766 35.6761 28.8339 35.1064H29.6164C29.8669 31.5985 30.1245 28.1004 30.3821 24.6022L30.3823 24.6003L30.3824 24.5993C30.7119 20.1248 31.0414 15.6501 31.356 11.1545H10.8379C10.7788 11.1661 10.7828 11.2627 10.7878 11.3605ZM21.0038 16.4293L21.0023 16.4293H21.0054L21.0038 16.4293Z" fill="#8047F8"/>
</svg>
